Coordinates
version=1
nRows=11
nColumns=63
inDegrees=yes

Units are S.I. units (second, meters, Newtons, ...)
If the header above contains a line with 'inDegrees', this indicates whether rotational values are in degrees (yes) or radians (no).

endheader
time	pelvis_tilt	pelvis_list	pelvis_rotation	pelvis_tx	pelvis_ty	pelvis_tz	hip_flexion_r	hip_adduction_r	hip_rotation_r	knee_angle_r	knee_angle_r_beta	ankle_angle_r	subtalar_angle_r	mtp_angle_r	hip_flexion_l	hip_adduction_l	hip_rotation_l	knee_angle_l	knee_angle_l_beta	ankle_angle_l	subtalar_angle_l	mtp_angle_l	L5_S1_Flex_Ext	L5_S1_Lat_Bending	L5_S1_axial_rotation	L4_L5_Flex_Ext	L4_L5_Lat_Bending	L4_L5_axial_rotation	L3_L4_Flex_Ext	L3_L4_Lat_Bending	L3_L4_axial_rotation	L2_L3_Flex_Ext	L2_L3_Lat_Bending	L2_L3_axial_rotation	L1_L2_Flex_Ext	L1_L2_Lat_Bending	L1_L2_axial_rotation	L1_T12_Flex_Ext	L1_T12_Lat_Bending	L1_T12_axial_rotation	Abs_r3	Abs_r2	Abs_r1	Abs_t1	Abs_t2	neck_flexion	neck_bending	neck_rotation	arm_flex_r	arm_add_r	arm_rot_r	elbow_flex_r	pro_sup_r	wrist_flex_r	wrist_dev_r	arm_flex_l	arm_add_l	arm_rot_l	elbow_flex_l	pro_sup_l	wrist_flex_l	wrist_dev_l
      7.77500000	    -52.67292300	     -4.34196109	     -3.83845754	     -0.26165289	      1.01291034	      0.02129699	    127.02250376	     -1.47078274	     -0.89746772	    107.87616356	      1.88279424	     11.47156147	     -4.83903880	      0.00000000	     87.40881837	    -10.57876216	      2.78611166	     60.06772670	      1.04837961	      6.17490965	      2.37946591	      0.00000000	     -0.07928030	      0.39994770	      0.60572872	     -0.14723145	      0.53193044	      0.64358676	     -0.13024961	      0.97243283	      0.64358676	     -0.09060946	      0.97243283	      0.53001263	     -0.07361969	      0.81557334	      0.49215458	     -0.04530076	      0.61951898	      0.45429654	     -0.56629127	      4.52428834	      3.36888141	      0.00000000	      0.00000000	      0.00000000	      0.00000000	      0.00000000	     75.13040374	    -10.02335617	     17.09729027	     25.35367918	     54.00251887	      0.00000000	      5.00000014	     70.85895618	     -9.88845657	     10.41556801	     32.68730027	     55.24610261	      0.00000000	      5.00000014
      7.78300000	    -52.71144739	     -4.23972565	     -3.46739886	     -0.26214539	      1.01301518	      0.02082517	    126.74188457	     -1.57606710	     -0.67142961	    106.30446806	      1.85536298	     11.54561598	     -4.94036410	      0.00000000	     87.89353936	    -10.28960068	      2.88498050	     61.83722881	      1.07926324	      6.15144638	      2.16941592	      0.00000000	     -0.08125560	      0.38159402	      0.52854310	     -0.15089977	      0.50752005	      0.56157704	     -0.13349482	      0.92780770	      0.56157704	     -0.09286702	      0.92780770	      0.46247521	     -0.07545395	      0.77814653	      0.42944127	     -0.04642945	      0.59108914	      0.39640732	     -0.58040061	      4.31666787	      2.93959814	      0.00000000	      0.00000000	      0.00000000	      0.00000000	      0.00000000	     75.17375077	     -9.98238959	     17.04652563	     25.47416719	     53.99917775	      0.00000000	      5.00000014	     70.97858342	     -9.89792576	     10.40293319	     32.76509155	     55.25886797	      0.00000000	      5.00000014
      7.79200000	    -52.72352692	     -4.44130681	     -3.53069018	     -0.26235491	      1.01296335	      0.02066574	    126.22741718	     -1.47509039	     -0.98143057	    104.63876177	      1.82629092	     11.88910564	     -5.22175777	      0.00000000	     88.66025835	    -10.41712652	      3.31378624	     64.13372006	      1.11934458	      5.32688063	      1.39101541	      0.00000000	     -0.07940352	      0.40586358	      0.54002397	     -0.14746028	      0.53979857	      0.57377547	     -0.13045204	      0.98681672	      0.57377547	     -0.09075028	      0.98681672	      0.47252098	     -0.07373411	      0.82763702	      0.43876948	     -0.04537117	      0.62868269	      0.40501798	     -0.56717140	      4.59121003	      3.00345133	      0.00000000	      0.00000000	      0.00000000	      0.00000000	      0.00000000	     75.14118833	     -9.96559437	     16.78069201	     25.55708555	     53.98609987	      0.00000000	      5.00000014	     70.92948559	     -9.79886623	     10.36879486	     32.91466726	     55.32901215	      0.00000000	      5.00000014
      7.80000000	    -52.70223039	     -4.30012151	     -3.10476087	     -0.26260833	      1.01277027	      0.01998789	    125.80849867	     -1.62874363	     -0.64089422	    103.11181442	      1.79964066	     11.93531872	     -5.25548549	      0.00000000	     89.19431491	     -9.99130662	      3.46964435	     66.14729548	      1.15448810	      5.29767028	      1.19816928	      0.00000000	     -0.07885755	      0.38673885	      0.45998606	     -0.14644636	      0.51436267	      0.48873519	     -0.12955507	      0.94031684	      0.48873519	     -0.09012629	      0.94031684	      0.40248780	     -0.07322712	      0.78863786	      0.37373867	     -0.04505920	      0.59905848	      0.34498955	     -0.56327160	      4.37486721	      2.55830448	      0.00000000	      0.00000000	      0.00000000	      0.00000000	      0.00000000	     75.11346783	     -9.96445593	     16.70043349	     25.62263116	     53.98461679	      0.00000000	      5.00000014	     70.98556186	     -9.83029842	     10.29426151	     32.95902224	     55.34385405	      0.00000000	      5.00000014
      7.80800000	    -52.67634045	     -4.23961807	     -2.77581516	     -0.26280181	      1.01258421	      0.01939516	    125.27341713	     -1.75104399	     -0.39550200	    101.51759901	      1.77181635	     12.20536057	     -4.92085455	      0.00000000	     89.78953679	     -9.65921286	      3.66352581	     68.22533266	      1.19075669	      5.10466112	      0.95242834	      0.00000000	     -0.07905746	      0.37887851	      0.40182790	     -0.14681761	      0.50390841	      0.42694215	     -0.12988350	      0.92120520	      0.42694215	     -0.09035477	      0.92120520	      0.35159942	     -0.07341276	      0.77260905	      0.32648517	     -0.04517343	      0.58688281	      0.30137093	     -0.56469953	      4.28594944	      2.23484625	      0.00000000	      0.00000000	      0.00000000	      0.00000000	      0.00000000	     75.03672587	     -9.97503297	     16.56858437	     25.82497375	     53.75198959	      0.00000000	      5.00000014	     70.99606158	     -9.81513474	     10.19194263	     33.10995333	     55.09396339	      0.00000000	      5.00000014
      7.81700000	    -52.64702896	     -4.32445315	     -2.55129881	     -0.26305888	      1.01244110	      0.01878815	    124.60549999	     -1.90520469	     -0.36733320	     99.80116672	      1.74185896	     12.41341503	     -4.79480409	      0.00000000	     90.47946839	     -9.44067271	      3.97954853	     70.33798380	      1.22762941	      4.75470653	      0.70303981	      0.00000000	     -0.07945609	      0.39210164	      0.36047903	     -0.14755790	      0.52149519	      0.38300896	     -0.13053840	      0.95335594	      0.38300896	     -0.09081036	      0.95335594	      0.31541915	     -0.07378292	      0.79957367	      0.29288921	     -0.04540121	      0.60736545	      0.27035927	     -0.56754687	      4.43553221	      2.00487619	      0.00000000	      0.00000000	      0.00000000	      0.00000000	      0.00000000	     75.12864315	     -9.90849685	     16.33842011	     25.64072320	     53.47830526	      0.00000000	      5.00000014	     71.04352778	     -9.74108786	     10.01279716	     32.98148714	     54.81613906	      0.00000000	      5.00000014
      7.82500000	    -52.60204755	     -4.18835700	     -2.08389706	     -0.26309602	      1.01213861	      0.01808059	    123.99697945	     -2.13291730	      0.04228077	     98.23653768	      1.71455103	     12.43163735	     -4.53023661	      0.00000000	     91.04462918	     -8.94130057	      4.08948685	     72.37674620	      1.26321252	      4.90237321	      0.53265410	      0.00000000	     -0.07916627	      0.37406122	      0.27055390	     -0.14701967	      0.49750142	      0.28746352	     -0.13006226	      0.90949245	      0.28746352	     -0.09047913	      0.90949245	      0.23673466	     -0.07351380	      0.76278564	      0.21982504	     -0.04523560	      0.57942083	      0.20291542	     -0.56547673	      4.23145531	      1.50473961	      0.00000000	      0.00000000	      0.00000000	      0.00000000	      0.00000000	     74.94793559	     -9.94240149	     16.28349402	     26.03335268	     53.24720687	      0.00000000	      5.00000014	     71.00151356	     -9.83902086	      9.93236081	     33.24241886	     54.55313867	      0.00000000	      5.00000014
      7.83300000	    -52.54284139	     -4.09023350	     -1.69145816	     -0.26308841	      1.01186280	      0.01739598	    123.27134732	     -2.34118560	      0.33100373	     96.58373431	      1.68570417	     12.39183565	     -4.41333909	      0.00000000	     91.66033816	     -8.51301565	      4.21927369	     74.48096985	      1.29993815	      4.90194235	      0.43480035	      0.00000000	     -0.07937510	      0.36304007	      0.19509374	     -0.14740750	      0.48284329	      0.20728710	     -0.13040536	      0.88269562	      0.20728710	     -0.09071780	      0.88269562	      0.17070702	     -0.07370772	      0.74031130	      0.15851366	     -0.04535493	      0.56234906	      0.14632030	     -0.56696842	      4.10678184	      1.08505284	      0.00000000	      0.00000000	      0.00000000	      0.00000000	      0.00000000	     74.87442857	     -9.90701072	     16.20508349	     26.10021090	     53.05202615	      0.00000000	      5.00000014	     71.02271893	     -9.88101286	      9.87060702	     33.22798083	     54.34045442	      0.00000000	      5.00000014
      7.84200000	    -52.50068727	     -3.99576438	     -1.29901869	     -0.26311715	      1.01168775	      0.01674120	    122.48468653	     -2.58686620	      0.57732488	     94.84768024	      1.65540431	     12.22629194	     -4.40672075	      0.00000000	     92.29621833	     -8.09899766	      4.31899079	     76.53288395	      1.33575081	      4.93450946	      0.34995873	      0.00000000	     -0.08017144	      0.35240609	      0.11596643	     -0.14888639	      0.46870011	      0.12321433	     -0.13171366	      0.85684018	      0.12321433	     -0.09162794	      0.85684018	      0.10147063	     -0.07444720	      0.71862651	      0.09422273	     -0.04580996	      0.54587704	      0.08697482	     -0.57265660	      3.98648823	      0.64497050	      0.00000000	      0.00000000	      0.00000000	      0.00000000	      0.00000000	     74.85484752	     -9.84978403	     16.13840156	     26.08015151	     52.92209913	      0.00000000	      5.00000014	     71.08484945	     -9.93018302	      9.84527230	     33.11731580	     54.20772723	      0.00000000	      5.00000014
      7.85000000	    -52.49197798	     -4.11859517	     -1.12173297	     -0.26321003	      1.01170815	      0.01621532	    121.54685506	     -2.78525345	      0.40206039	     92.90250601	      1.62145461	     11.89087001	     -4.71052834	      0.00000000	     93.05170418	     -7.91526503	      4.59430426	     78.61391821	      1.37207171	      4.74510391	      0.22649764	      0.00000000	     -0.07933222	      0.37139178	      0.07927365	     -0.14732787	      0.49395106	      0.08422825	     -0.13033491	      0.90300197	      0.08422825	     -0.09066880	      0.90300197	      0.06936444	     -0.07366790	      0.75734211	      0.06440984	     -0.04533043	      0.57528586	      0.05945524	     -0.56666215	      4.20125807	      0.44089626	      0.00000000	      0.00000000	      0.00000000	      0.00000000	      0.00000000	     75.01103330	     -9.78551353	     16.01219802	     25.73204786	     52.86316814	      0.00000000	      5.00000014	     71.23116121	     -9.88754294	      9.95892020	     32.69996200	     54.20760789	      0.00000000	      5.00000014
      7.85800000	    -52.47098040	     -3.92697648	     -0.61019147	     -0.26312789	      1.01165164	      0.01549985	    120.67719851	     -3.11464922	      0.76749966	     91.11448270	      1.59024772	     11.59104078	     -4.72073250	      0.00000000	     93.65420913	     -7.36151625	      4.54786269	     80.60997924	      1.40690955	      5.01882961	      0.10973412	      0.00000000	     -0.08105734	      0.34660394	     -0.02660181	     -0.15053158	      0.46098324	     -0.02826442	     -0.13316910	      0.84273282	     -0.02826442	     -0.09264043	      0.84273282	     -0.02327658	     -0.07526984	      0.70679476	     -0.02161397	     -0.04631616	      0.53688950	     -0.01995136	     -0.57898445	      3.92085310	     -0.14795128	      0.00000000	      0.00000000	      0.00000000	      0.00000000	      0.00000000	     74.88618307	     -9.76278549	     15.98730876	     25.96793697	     52.72639983	      0.00000000	      5.00000014	     71.25050304	    -10.00414952	      9.97245774	     32.79569124	     54.06478081	      0.00000000	      5.00000014
